<?xml version="1.0" standalone="no"?>
<!DOCTYPE svg PUBLIC "-//W3C//DTD SVG 20010904//EN"
 "http://www.w3.org/TR/2001/REC-SVG-20010904/DTD/svg10.dtd">
<svg version="1.0" xmlns="http://www.w3.org/2000/svg"
 width="688.000000pt" height="688.000000pt" viewBox="0 0 688.000000 688.000000"
 preserveAspectRatio="xMidYMid meet">
<metadata>
Created by potrace 1.11, written by Peter Selinger 2001-2013
</metadata>
<g transform="translate(0.000000,688.000000) scale(0.100000,-0.100000)"
fill="#000000" stroke="none">
<path d="M44 6350 c2 -30 -2 -50 -8 -50 -7 0 -8 -3 -1 -8 14 -10 14 -95 1
-104 -7 -5 -7 -8 -1 -8 11 0 13 -89 2 -106 -3 -6 -4 -14 0 -18 11 -11 10 -101
-1 -108 -7 -5 -7 -8 -1 -8 11 0 13 -89 2 -106 -3 -6 -4 -14 0 -18 11 -11 10
-101 -1 -108 -7 -5 -7 -8 -1 -8 11 0 13 -89 2 -106 -3 -6 -4 -14 0 -18 11 -11
11 -106 -1 -106 -7 0 -7 -3 -1 -8 12 -9 16 -112 4 -112 -5 0 -1 -8 8 -18 13
-13 23 -16 35 -10 10 5 19 4 23 -2 5 -8 11 -8 20 0 10 8 15 8 20 0 5 -8 10 -8
20 0 10 8 15 8 20 0 5 -8 10 -8 20 0 10 8 15 8 20 0 5 -8 10 -8 20 0 10 8 15
8 20 0 5 -8 11 -8 19 -1 7 6 16 8 20 4 10 -10 36 -13 36 -4 0 9 31 8 48 -3 7
-4 12 -2 12 6 0 8 3 9 8 3 8 -12 52 -15 52 -4 0 9 20 7 37 -4 6 -4 14 -3 18 3
4 6 12 7 18 3 15 -9 47 -11 47 -3 0 9 32 6 48 -4 7 -4 12 -2 12 6 0 8 3 9 8 3
8 -12 52 -15 52 -4 0 9 20 7 37 -4 6 -4 14 -3 18 3 4 6 12 7 18 3 15 -9 47
-11 47 -3 0 9 32 6 48 -4 7 -4 12 -2 12 4 0 6 5 8 12 4 16 -10 48 -13 48 -4 0
8 32 6 47 -3 6 -4 15 -3 18 3 5 8 11 8 20 0 10 -8 15 -8 20 0 5 8 10 8 20 0
10 -8 15 -8 20 0 5 8 10 8 20 0 10 -8 15 -8 20 0 5 8 10 8 20 0 10 -8 15 -8
20 0 5 8 10 8 20 0 10 -8 15 -8 20 0 5 8 10 8 20 0 10 -8 15 -8 20 0 5 8 10 8
20 0 10 -8 15 -8 20 0 5 8 10 8 20 0 10 -8 15 -8 20 0 5 8 10 8 20 0 10 -8 15
-8 20 0 5 8 10 8 20 0 10 -8 15 -8 20 0 5 8 10 8 20 0 10 -8 15 -8 20 0 5 8
10 8 20 0 10 -8 15 -8 20 0 5 8 10 8 20 0 10 -8 15 -8 20 0 5 8 11 7 23 -2 13
-11 15 -10 9 5 -3 9 -3 17 1 17 4 0 7 16 7 35 0 19 -3 35 -6 35 -4 0 -4 14 1
30 5 19 5 30 -1 30 -6 0 -7 5 -4 11 12 18 12 68 1 74 -8 3 -8 7 0 10 10 5 11
61 1 71 -3 3 -1 21 3 40 5 20 4 34 -2 34 -5 0 -6 5 -3 11 12 18 12 68 1 73 -7
3 -8 7 -1 13 12 10 13 33 2 51 -5 6 -4 12 1 12 5 0 9 7 9 15 0 8 -4 15 -9 15
-5 0 -7 4 -4 8 10 16 14 62 6 62 -5 0 -5 13 0 30 5 19 5 30 -1 30 -6 0 -7 5
-4 11 12 18 12 68 1 73 -7 3 -8 7 -1 13 12 10 13 33 2 51 -5 6 -4 12 1 12 5 0
9 7 9 15 0 8 -4 15 -9 15 -5 0 -4 8 1 18 5 10 6 24 2 31 -5 7 -5 28 -1 47 5
20 4 34 -1 34 -6 0 -6 8 0 19 6 10 7 21 4 25 -3 3 -347 6 -763 6 l-758 0 2
-50z"/>
<path d="M47 5083 c-2 -5 -3 -26 -2 -48 1 -22 -3 -43 -9 -47 -6 -5 -7 -8 -1
-8 11 0 13 -89 2 -106 -3 -6 -4 -14 0 -18 11 -11 10 -101 -1 -108 -7 -5 -7 -8
-1 -8 11 0 13 -89 2 -106 -3 -6 -4 -14 0 -18 11 -11 10 -101 -1 -108 -7 -5 -7
-8 -1 -8 11 0 13 -89 2 -106 -3 -6 -4 -14 0 -18 11 -11 10 -101 -1 -108 -7 -5
-7 -8 -1 -8 11 0 13 -89 2 -106 -3 -6 -4 -14 0 -18 11 -11 10 -101 -1 -108 -7
-5 -7 -8 -1 -8 11 0 13 -89 2 -106 -3 -6 -4 -14 0 -18 11 -11 10 -101 -1 -108
-7 -5 -7 -8 -1 -8 11 0 13 -89 2 -107 -4 -6 -3 -14 1 -17 10 -6 8 -48 -2 -65
-4 -6 7 -17 24 -26 16 -8 30 -12 30 -7 0 9 17 8 65 -1 11 -2 30 -1 42 4 13 5
25 4 28 -2 4 -5 12 -6 18 -2 17 10 67 11 67 1 0 -5 4 -6 10 -3 18 11 50 14 50
5 0 -5 6 -7 13 -5 29 10 67 13 67 5 0 -5 7 -7 16 -3 27 10 79 10 87 -1 5 -8 9
-8 15 -1 7 10 24 11 67 2 11 -2 30 -1 42 4 13 5 25 4 28 -2 4 -5 12 -6 18 -2
17 10 67 11 67 1 0 -5 4 -6 10 -3 18 11 50 14 50 5 0 -5 6 -7 13 -5 29 10 67
13 67 5 0 -5 7 -7 16 -3 27 10 79 10 87 -1 5 -8 9 -8 15 -1 7 10 24 11 67 2
11 -2 30 -1 42 4 13 5 25 4 28 -2 4 -5 12 -6 18 -2 17 10 67 11 67 1 0 -5 6
-6 13 -1 18 11 61 10 70 -2 5 -7 9 -7 15 0 7 10 24 11 67 2 11 -2 30 0 42 4
15 5 23 5 23 -2 0 -6 7 -6 20 1 10 6 24 9 31 8 7 -2 12 11 13 30 0 17 -3 32
-7 32 -5 0 -5 5 -1 12 10 16 11 58 2 64 -4 3 -8 10 -8 15 0 6 3 8 8 6 9 -6 8
90 -1 99 -4 4 -2 13 4 20 7 8 7 14 -1 19 -5 3 -10 11 -10 16 0 6 3 8 8 6 9 -6
8 90 -1 99 -3 4 -2 15 4 25 7 13 6 19 -1 19 -6 0 -8 5 -5 11 12 18 12 68 1 73
-7 3 -8 7 -1 13 12 10 13 33 2 51 -5 6 -4 12 1 12 5 0 9 7 9 15 0 8 -4 15 -9
15 -5 0 -4 10 3 21 8 16 8 20 -1 14 -9 -6 -9 -3 -1 12 7 14 7 23 -1 31 -8 8
-9 12 -1 12 13 0 12 32 -2 43 -7 5 -7 10 0 15 12 8 13 32 2 50 -5 6 -4 12 1
12 5 0 9 7 9 15 0 8 -4 15 -9 15 -5 0 -4 10 3 21 8 16 8 20 -1 14 -9 -6 -9 -3
-1 12 7 14 7 23 -1 31 -8 8 -9 12 -1 12 13 0 12 32 -2 43 -7 5 -7 10 0 15 11
8 13 47 2 58 -9 10 -9 26 1 21 9 -6 8 90 -1 99 -4 4 -2 13 4 20 7 8 7 14 -1
19 -5 3 -10 11 -10 16 0 6 3 8 8 6 9 -6 8 90 -1 99 -3 4 -2 15 4 25 7 13 6 19
-1 19 -6 0 -8 5 -5 11 10 16 12 69 3 63 -4 -3 -8 0 -8 6 0 6 -4 9 -9 6 -5 -4
-12 0 -14 6 -4 9 -8 10 -14 3 -8 -10 -25 -11 -68 -2 -11 2 -30 1 -42 -4 -13
-5 -25 -4 -28 2 -4 5 -12 6 -18 2 -17 -10 -67 -11 -67 -1 0 5 -6 6 -12 1 -19
-11 -62 -10 -70 2 -6 7 -10 7 -15 0 -8 -10 -25 -11 -68 -2 -11 2 -30 1 -42 -4
-13 -5 -25 -4 -28 2 -4 5 -12 6 -18 2 -17 -10 -67 -11 -67 -1 0 5 -8 4 -18 -1
-10 -5 -24 -6 -31 -1 -8 4 -26 4 -41 0 -15 -4 -33 -4 -40 0 -7 5 -20 6 -28 3
-26 -10 -77 -9 -84 1 -6 8 -10 8 -15 1 -8 -10 -25 -11 -68 -2 -11 2 -30 1 -42
-4 -13 -5 -25 -4 -28 2 -4 5 -12 6 -18 2 -17 -10 -67 -11 -67 -1 0 5 -8 4 -18
-1 -10 -5 -24 -6 -31 -1 -8 4 -26 4 -41 0 -15 -4 -33 -4 -40 0 -7 5 -20 6 -28
3 -26 -10 -77 -9 -84 1 -6 8 -10 8 -15 1 -8 -11 -49 -12 -60 -2 -3 4 -14 2
-24 -4 -13 -6 -19 -6 -19 1 0 5 -5 10 -11 10 -5 0 -8 -4 -5 -8 6 -10 -35 -9
-51 1 -6 4 -13 4 -16 0z"/>
<path d="M1841 5081 c-8 -5 -21 -7 -30 -3 -9 3 -13 2 -9 -2 4 -5 3 -18 -2 -31
-5 -13 -6 -26 -2 -30 11 -11 8 -95 -3 -95 -6 0 -6 -3 0 -8 13 -8 14 -102 1
-102 -5 0 -2 -8 5 -17 12 -14 12 -16 0 -8 -11 6 -12 5 -5 -6 12 -19 11 -82 -1
-91 -7 -5 -6 -11 1 -15 11 -9 11 -63 0 -81 -3 -6 -2 -13 2 -16 8 -5 9 -29 2
-61 -1 -5 -1 -12 0 -15 7 -18 4 -60 -5 -60 -7 0 -7 -3 0 -8 13 -8 14 -102 1
-102 -5 0 -2 -8 5 -17 12 -14 12 -16 0 -8 -11 6 -12 5 -5 -6 12 -19 11 -82 -1
-91 -7 -5 -6 -11 1 -15 11 -9 11 -63 0 -81 -3 -6 -2 -13 2 -16 8 -5 9 -29 2
-61 -1 -5 -1 -12 0 -15 7 -18 4 -60 -5 -60 -7 0 -7 -3 0 -8 13 -8 14 -102 1
-102 -5 0 -2 -8 5 -17 12 -14 12 -16 0 -8 -11 6 -12 5 -5 -6 12 -19 11 -82 -1
-91 -7 -5 -6 -11 0 -15 14 -10 14 -103 1 -103 -6 0 -5 -5 1 -11 6 -6 9 -18 6
-27 -5 -11 -3 -13 6 -7 8 4 17 2 22 -6 6 -9 12 -10 17 -4 7 10 24 11 67 2 11
-2 30 -1 42 4 13 5 25 4 28 -2 4 -5 12 -6 18 -2 17 10 67 11 67 1 0 -5 4 -6
10 -3 18 11 50 14 50 5 0 -5 6 -7 13 -5 29 10 67 13 67 5 0 -5 7 -7 16 -3 27
10 79 10 87 -1 5 -8 9 -8 15 -1 7 10 24 11 67 2 11 -2 30 -1 42 4 13 5 25 4
28 -2 4 -5 12 -6 18 -2 17 10 67 11 67 1 0 -5 4 -6 10 -3 18 11 50 14 50 5 0
-5 6 -7 13 -5 29 10 67 13 67 5 0 -5 7 -7 16 -3 27 10 79 10 87 -1 5 -8 9 -8
15 -1 7 10 24 11 67 2 11 -2 30 -1 42 4 13 5 25 4 28 -2 4 -5 12 -6 18 -2 17
10 67 11 67 1 0 -5 4 -6 10 -3 18 11 50 14 50 5 0 -5 6 -7 13 -5 29 10 67 13
67 5 0 -5 6 -7 13 -5 28 10 67 13 67 5 0 -5 13 -5 30 0 17 5 33 9 36 9 4 1 7
19 8 40 1 22 0 38 -3 36 -3 -2 -6 10 -6 26 0 16 3 29 6 29 8 0 5 33 -5 48 -4
7 -2 12 4 12 6 0 8 5 4 12 -11 18 -12 48 -2 48 5 0 4 9 -2 20 -6 11 -7 20 -2
20 10 0 9 30 -2 48 -4 7 -2 12 4 12 6 0 8 5 4 12 -11 18 -12 48 -2 48 5 0 4 9
-2 20 -6 11 -7 20 -2 20 10 0 9 30 -2 48 -4 7 -2 12 4 12 6 0 8 5 4 12 -11 18
-12 48 -2 48 5 0 4 9 -2 20 -6 11 -7 20 -2 20 10 0 9 30 -2 48 -4 7 -2 12 4
12 6 0 8 5 4 12 -11 18 -12 48 -2 48 5 0 4 9 -2 20 -6 11 -7 20 -2 20 10 0 9
30 -2 48 -4 7 -2 12 4 12 6 0 8 5 4 12 -11 18 -12 48 -2 48 5 0 4 9 -2 20 -6
11 -7 20 -2 20 10 0 9 30 -2 48 -4 7 -2 12 4 12 6 0 8 5 4 12 -11 18 -12 48
-2 48 5 0 4 9 -2 20 -6 11 -7 20 -2 20 10 0 9 30 -2 48 -4 7 -2 12 4 12 6 0 8
5 4 12 -11 18 -12 48 -2 48 5 0 4 9 -2 20 -6 11 -7 20 -2 20 10 0 9 30 -2 48
-4 7 -2 12 4 12 6 0 8 5 4 12 -10 16 -13 48 -4 48 8 0 6 32 -3 47 -4 6 -3 15
3 18 8 5 7 11 -1 21 -9 11 -9 17 1 29 12 15 4 20 -22 16 -5 0 -8 4 -8 9 0 7
-6 7 -18 1 -10 -5 -24 -6 -31 -1 -8 4 -26 4 -41 0 -15 -4 -33 -4 -40 0 -7 4
-25 4 -40 0 -15 -4 -33 -4 -40 0 -7 5 -20 6 -28 3 -26 -10 -77 -9 -84 1 -6 8
-10 8 -15 1 -8 -10 -25 -11 -68 -2 -11 2 -30 1 -42 -4 -13 -5 -25 -4 -28 2 -4
5 -12 6 -18 2 -17 -10 -67 -11 -67 -1 0 5 -8 4 -18 -1 -10 -5 -24 -6 -31 -1
-8 4 -26 4 -41 0 -15 -4 -33 -4 -40 0 -7 5 -20 6 -28 3 -26 -10 -77 -9 -84 1
-6 8 -10 8 -15 1 -8 -10 -25 -11 -68 -2 -11 2 -30 1 -42 -4 -13 -5 -25 -4 -28
2 -4 5 -12 6 -18 2 -17 -10 -67 -11 -67 -1 0 5 -8 4 -18 -1 -10 -5 -24 -6 -31
-1 -8 4 -26 4 -41 0 -15 -4 -33 -4 -40 0 -7 5 -20 6 -28 3 -26 -10 -77 -9 -84
1 -6 8 -10 8 -15 1 -8 -11 -49 -12 -60 -1 -3 3 -12 1 -20 -5 -9 -9 -13 -8 -13
0 0 8 -5 9 -19 1 -12 -6 -21 -6 -23 0 -2 5 -9 6 -17 1z"/>
<path d="M75 3321 c-3 -6 -11 -9 -16 -6 -14 9 -30 -5 -22 -18 10 -16 10 -97 1
-103 -5 -3 -5 -11 -1 -17 11 -18 10 -101 -1 -109 -7 -5 -7 -8 -1 -8 11 0 13
-89 2 -106 -3 -6 -4 -14 0 -18 11 -11 10 -101 -1 -108 -7 -5 -7 -8 -1 -8 11 0
13 -89 2 -106 -3 -6 -4 -14 0 -18 11 -11 10 -101 -1 -108 -7 -5 -7 -8 -1 -8
11 0 13 -89 2 -106 -3 -6 -4 -14 0 -18 11 -11 10 -101 -1 -108 -7 -5 -7 -8 -1
-8 11 0 13 -89 2 -106 -3 -6 -4 -14 0 -18 11 -11 10 -101 -1 -108 -7 -5 -7 -8
-1 -8 11 0 13 -89 2 -106 -3 -6 -4 -14 0 -18 11 -11 10 -101 -1 -108 -7 -5 -7
-8 2 -8 7 0 10 -5 7 -10 -13 -20 5 -50 28 -46 12 2 32 0 44 -5 12 -5 25 -5 27
0 5 7 51 7 66 1 3 -1 10 -1 15 0 39 8 85 7 85 -3 0 -8 3 -8 11 0 8 8 20 8 35
3 13 -5 26 -6 28 -1 5 7 51 7 66 1 3 -1 10 -1 15 0 39 8 85 7 85 -3 0 -8 3 -8
11 0 8 8 20 8 35 3 13 -5 26 -6 28 -1 5 7 51 7 66 1 3 -1 10 -1 15 0 39 8 85
7 85 -3 0 -8 3 -8 11 0 8 8 20 8 35 3 13 -5 26 -6 28 -1 5 7 51 7 66 1 3 -1
10 -1 15 0 39 8 85 7 85 -3 0 -8 3 -8 11 0 8 8 20 8 35 3 13 -5 26 -6 28 -1 5
7 51 7 66 1 3 -1 10 -1 15 0 39 8 85 7 85 -3 0 -8 3 -8 11 0 8 8 20 8 35 3 13
-5 26 -6 28 -1 5 7 51 7 66 1 3 -1 10 -1 15 0 35 7 85 7 85 -1 0 -6 7 -6 18 0
9 5 22 10 27 11 15 3 20 10 7 10 -8 0 -9 7 -2 25 6 17 6 25 -1 25 -6 0 -7 5
-4 11 12 18 12 68 1 73 -7 3 -8 7 -1 13 12 10 13 33 2 51 -5 6 -4 12 1 12 5 0
9 7 9 15 0 8 -4 15 -9 15 -5 0 -7 4 -4 8 10 16 14 62 6 62 -5 0 -5 13 0 30 5
19 5 30 -1 30 -6 0 -7 5 -4 11 12 18 12 68 1 73 -7 3 -8 7 -1 13 12 10 13 33
2 51 -5 6 -4 12 1 12 5 0 9 7 9 15 0 8 -4 15 -9 15 -5 0 -4 8 1 18 5 10 6 24
2 31 -5 7 -5 28 -1 47 5 20 4 34 -2 34 -5 0 -6 5 -3 11 12 18 12 68 1 73 -7 3
-8 7 -1 13 12 10 13 33 2 51 -5 6 -4 12 1 12 5 0 9 7 9 15 0 8 -4 15 -9 15 -5
0 -7 4 -4 8 10 16 14 62 6 62 -5 0 -5 13 0 30 5 19 5 30 -1 30 -6 0 -7 5 -4
11 12 18 12 68 1 73 -7 3 -8 7 -1 13 12 10 13 33 2 51 -5 6 -4 12 1 12 5 0 9
7 9 15 0 8 -4 15 -8 15 -5 0 -4 11 1 25 6 17 6 25 -1 25 -6 0 -7 5 -4 11 12
18 12 68 1 73 -7 3 -8 7 -1 13 12 10 13 33 2 51 -5 6 -4 12 1 12 5 0 9 7 9 15
0 8 -4 15 -9 15 -5 0 -4 8 1 18 13 25 -9 53 -32 41 -12 -7 -17 -6 -17 3 0 9
-3 9 -12 0 -14 -14 -32 -16 -23 -3 3 6 -6 6 -25 1 -18 -5 -32 -5 -36 1 -4 6
-11 6 -19 -1 -10 -8 -15 -8 -20 0 -5 8 -10 8 -20 0 -9 -8 -15 -8 -20 0 -4 7
-12 7 -26 0 -14 -8 -19 -7 -19 1 0 9 -3 9 -14 0 -10 -9 -16 -9 -21 -1 -5 8
-10 8 -20 0 -10 -8 -15 -8 -20 0 -5 8 -10 8 -20 0 -9 -8 -15 -8 -20 0 -4 7
-12 7 -26 0 -14 -8 -19 -7 -19 1 0 9 -3 9 -14 0 -10 -9 -16 -9 -21 -1 -5 8
-10 8 -20 0 -10 -8 -15 -8 -20 0 -5 8 -10 8 -20 0 -9 -8 -15 -8 -20 0 -4 7
-12 7 -26 0 -10 -6 -19 -7 -19 -2 0 5 -7 9 -15 9 -8 0 -15 -3 -15 -7 0 -9 -32
-6 -48 4 -7 4 -12 2 -12 -4 0 -6 -5 -8 -12 -4 -17 11 -48 12 -48 3 0 -9 -20
-7 -37 4 -6 4 -14 3 -18 -3 -4 -6 -12 -7 -18 -3 -15 9 -47 11 -47 3 0 -9 -32
-6 -48 4 -7 4 -12 2 -12 -4 0 -6 -5 -8 -12 -4 -17 11 -48 12 -48 3 0 -9 -20
-7 -37 4 -6 4 -14 3 -18 -3 -4 -6 -12 -7 -18 -3 -15 9 -47 11 -47 3 0 -9 -32
-6 -48 4 -7 4 -12 2 -12 -4 0 -6 -5 -8 -12 -4 -16 10 -48 13 -48 4 0 -8 -37
-6 -46 3 -4 4 -13 2 -20 -4 -8 -7 -14 -7 -19 1 -5 8 -10 8 -20 0 -9 -8 -15 -8
-20 0 -4 7 -12 7 -26 0 -14 -8 -19 -7 -19 1 0 9 -3 9 -14 0 -10 -9 -16 -9 -21
-1 -5 8 -11 8 -19 1 -9 -7 -16 -7 -23 0 -8 8 -13 8 -18 0z"/>
<path d="M1806 3321 c-4 -6 -5 -11 -2 -11 3 0 1 -11 -4 -25 -6 -15 -6 -26 0
-30 11 -7 9 -33 -3 -52 -5 -7 -4 -13 2 -13 5 0 8 -8 6 -17 -2 -10 -4 -18 -5
-18 -5 0 -4 -57 1 -61 8 -5 4 -88 -5 -103 -4 -5 -2 -12 2 -15 8 -5 9 -29 2
-61 -1 -5 -1 -12 0 -15 7 -18 4 -60 -5 -60 -7 0 -7 -3 0 -8 13 -8 14 -102 1
-102 -5 0 -2 -8 5 -17 12 -14 12 -16 0 -8 -11 6 -12 5 -5 -6 12 -19 11 -82 -1
-91 -7 -5 -6 -11 1 -15 11 -9 11 -63 0 -81 -3 -6 -2 -13 2 -16 10 -6 8 -48 -2
-65 -4 -5 -2 -12 2 -15 10 -6 8 -48 -2 -65 -4 -5 -2 -12 2 -15 8 -5 9 -29 2
-61 -1 -5 -1 -12 0 -15 7 -18 4 -60 -5 -60 -7 0 -7 -3 0 -8 13 -8 14 -102 1
-102 -5 0 -2 -8 5 -17 12 -14 12 -16 0 -8 -11 6 -12 5 -5 -6 12 -19 11 -82 -1
-91 -7 -5 -6 -11 1 -15 9 -7 11 -48 4 -78 -1 -5 -1 -12 0 -15 1 -3 3 -17 4
-33 1 -23 6 -31 19 -26 14 6 59 4 63 -3 3 -4 10 -6 15 -2 19 11 89 12 89 1 0
-8 3 -8 11 0 8 8 20 8 35 3 13 -5 26 -6 28 -1 5 7 51 7 66 1 3 -1 10 -1 15 0
39 8 85 7 85 -3 0 -8 3 -8 11 0 8 8 20 8 35 3 13 -5 26 -6 28 -1 5 7 51 7 66
1 3 -1 10 -1 15 0 39 8 85 7 85 -3 0 -8 3 -8 11 0 8 8 20 8 35 3 13 -5 26 -6
28 -1 5 7 51 7 66 1 3 -1 10 -1 15 0 39 8 85 7 85 -3 0 -8 3 -8 11 0 8 8 20 8
35 3 13 -5 26 -6 28 -1 5 7 51 7 66 1 3 -1 10 -1 15 0 39 8 85 7 85 -3 0 -8 3
-8 11 0 8 8 20 8 35 3 13 -5 26 -6 28 -1 5 7 51 7 66 1 3 -1 10 -1 15 0 40 8
85 7 85 -3 0 -8 3 -8 8 -2 10 14 32 17 32 4 0 -8 4 -8 13 0 10 8 17 7 27 -2
10 -10 11 -9 5 2 -6 11 -4 13 8 8 27 -10 50 2 36 19 -9 11 -9 14 0 14 7 0 9 5
5 12 -11 18 -12 48 -2 48 5 0 4 9 -2 20 -6 11 -7 20 -2 20 10 0 9 30 -2 48 -4
7 -2 12 4 12 6 0 8 5 4 12 -11 18 -12 48 -2 48 5 0 4 9 -2 20 -6 11 -7 20 -2
20 10 0 9 30 -2 48 -4 7 -2 12 4 12 6 0 8 5 4 12 -11 18 -12 48 -2 48 5 0 4 9
-2 20 -6 11 -7 20 -2 20 10 0 9 30 -2 48 -4 7 -2 12 4 12 6 0 8 5 4 12 -10 16
-13 48 -4 48 8 0 6 32 -3 47 -4 6 -3 14 3 18 6 4 7 12 3 18 -11 17 -13 37 -4
37 11 0 8 44 -4 52 -6 5 -5 8 3 8 8 0 10 5 6 12 -10 16 -13 48 -4 48 8 0 6 32
-3 47 -4 6 -3 15 3 18 8 5 7 11 -1 21 -9 11 -9 14 1 14 10 0 10 3 1 14 -9 10
-9 16 -1 21 8 5 8 10 0 20 -8 10 -8 15 0 20 8 5 8 10 0 20 -8 10 -8 15 0 20 7
5 8 11 1 19 -6 7 -6 17 -1 26 5 9 5 19 -1 26 -7 8 -6 14 1 19 6 3 7 12 3 18
-11 17 -13 37 -4 37 11 0 8 44 -4 52 -6 5 -5 8 3 8 8 0 10 5 6 12 -10 16 -13
48 -4 48 8 0 6 32 -3 47 -4 6 -3 15 3 18 8 5 7 11 -1 21 -9 11 -9 14 1 14 9 0
10 3 1 13 -7 10 -7 17 0 24 8 8 8 13 0 17 -8 5 -8 13 -1 27 8 13 7 19 0 19 -6
0 -9 4 -5 9 3 5 1 12 -5 16 -5 3 -10 2 -10 -4 0 -10 -18 -10 -37 2 -6 4 -15 3
-18 -3 -5 -8 -11 -8 -20 0 -10 8 -15 8 -20 0 -5 -8 -10 -8 -20 0 -9 8 -15 8
-20 0 -3 -6 -12 -7 -18 -3 -15 9 -47 11 -47 3 0 -9 -32 -6 -48 4 -7 4 -12 2
-12 -4 0 -6 -5 -8 -12 -4 -17 11 -48 12 -48 3 0 -9 -20 -7 -37 4 -6 4 -15 3
-18 -3 -5 -8 -11 -8 -20 0 -10 8 -15 8 -20 0 -5 -8 -10 -8 -20 0 -9 8 -15 8
-20 0 -3 -6 -12 -7 -18 -3 -15 9 -47 11 -47 3 0 -9 -32 -6 -48 4 -7 4 -12 2
-12 -4 0 -6 -5 -8 -12 -4 -17 11 -48 12 -48 3 0 -9 -26 -6 -36 4 -4 4 -13 2
-20 -4 -8 -7 -14 -7 -19 1 -4 7 -12 7 -25 0 -13 -7 -21 -7 -25 0 -5 8 -11 8
-20 0 -10 -8 -15 -8 -20 0 -5 8 -10 8 -20 0 -9 -8 -15 -8 -20 0 -4 7 -12 7
-26 0 -14 -8 -19 -7 -19 1 0 9 -3 9 -14 0 -10 -9 -16 -9 -21 -1 -5 8 -10 8
-20 0 -10 -8 -15 -8 -20 0 -5 8 -10 8 -20 0 -9 -8 -15 -8 -20 0 -4 7 -12 7
-26 0 -10 -6 -19 -7 -19 -2 0 5 -7 9 -15 9 -8 0 -15 -3 -15 -7 0 -9 -32 -6
-48 4 -7 4 -12 2 -12 -4 0 -6 -5 -8 -12 -4 -17 11 -48 12 -48 3 0 -9 -20 -7
-37 4 -6 4 -14 3 -18 -3 -4 -6 -12 -7 -18 -3 -15 9 -47 11 -47 3 0 -9 -32 -6
-48 4 -7 4 -12 2 -12 -4 0 -6 -5 -8 -12 -4 -17 11 -48 13 -48 3 0 -9 -33 -6
-41 5 -4 4 -10 3 -13 -3z"/>
<path d="M3559 3321 c-2 -18 -1 -51 1 -53 5 -8 6 -48 0 -48 -8 0 -6 -37 3 -46
4 -4 2 -13 -4 -21 -6 -7 -7 -13 -2 -13 5 0 9 -9 9 -20 0 -11 -3 -20 -6 -20 -9
0 -6 -32 4 -48 4 -7 2 -12 -4 -12 -6 0 -8 -5 -4 -12 10 -16 13 -48 4 -48 -8 0
-6 -37 3 -46 4 -4 2 -13 -4 -21 -6 -7 -7 -13 -2 -13 5 0 9 -9 9 -20 0 -11 -3
-20 -6 -20 -9 0 -6 -32 4 -48 4 -7 2 -12 -4 -12 -6 0 -8 -5 -4 -12 10 -15 13
-48 5 -48 -8 0 -6 -58 2 -66 3 -4 2 -15 -4 -25 -7 -13 -6 -19 1 -19 7 0 8 -6
0 -19 -6 -12 -6 -22 -1 -26 6 -3 6 -17 1 -35 -5 -18 -5 -32 1 -35 5 -4 5 -14
-1 -26 -8 -13 -7 -19 0 -19 7 0 8 -6 1 -19 -6 -10 -7 -21 -4 -25 9 -9 11 -46
3 -46 -9 0 -6 -32 4 -48 4 -7 2 -12 -4 -12 -6 0 -8 -5 -4 -12 10 -16 13 -48 4
-48 -8 0 -6 -37 3 -46 4 -4 2 -13 -4 -21 -6 -7 -7 -13 -2 -13 5 0 9 -9 9 -20
0 -11 -3 -20 -6 -20 -9 0 -6 -32 4 -48 4 -7 2 -12 -4 -12 -6 0 -8 -5 -4 -12
10 -16 13 -48 4 -48 -8 0 -6 -37 3 -46 4 -4 2 -13 -4 -21 -6 -7 -7 -13 -2 -13
5 0 9 -9 9 -20 0 -11 -3 -20 -6 -20 -9 0 -6 -38 3 -46 4 -4 2 -13 -4 -21 -9
-9 -8 -13 0 -13 6 0 11 -8 11 -17 0 -10 4 -14 8 -8 10 14 92 15 92 2 0 -7 4
-7 11 0 8 8 20 8 35 3 13 -5 26 -6 28 -1 5 7 51 7 66 1 3 -1 10 -1 15 0 39 8
85 7 85 -3 0 -8 3 -8 11 0 8 8 20 8 35 3 13 -5 26 -6 28 -1 5 7 51 7 66 1 3
-1 10 -1 15 0 39 8 85 7 85 -3 0 -8 3 -8 11 0 8 8 20 8 35 3 13 -5 26 -6 28
-1 5 7 51 7 66 1 3 -1 10 -1 15 0 39 8 85 7 85 -3 0 -8 3 -8 11 0 8 8 20 8 35
3 13 -5 26 -6 28 -1 5 7 51 7 66 1 3 -1 10 -1 15 0 39 8 85 7 85 -3 0 -8 3 -8
11 0 8 8 20 8 35 3 13 -5 26 -6 28 -1 5 7 51 7 66 1 3 -1 10 -1 15 0 40 8 85
7 85 -3 0 -8 3 -8 8 -2 10 14 32 17 32 4 0 -8 4 -8 13 0 10 8 17 7 27 -2 10
-9 11 -9 6 0 -8 15 45 13 56 -2 5 -6 8 -6 8 1 0 6 15 10 34 9 30 -1 34 1 25
16 -6 12 -5 20 1 24 6 4 8 11 5 16 -11 17 -11 89 0 89 7 0 7 3 0 8 -9 6 -11
22 -5 47 1 6 2 14 1 19 -7 36 -5 86 4 86 7 0 7 3 0 8 -9 6 -11 22 -5 47 1 6 2
14 1 19 -7 36 -5 86 4 86 7 0 7 3 0 8 -9 6 -11 22 -5 47 1 6 2 14 1 19 -7 36
-5 86 4 86 7 0 7 3 0 8 -9 6 -11 22 -5 47 1 6 2 14 1 19 -7 36 -5 86 4 86 7 0
7 3 0 8 -9 6 -11 22 -5 47 1 6 2 14 1 19 -7 36 -5 86 4 86 7 0 7 3 0 8 -9 6
-11 22 -5 47 1 6 2 14 1 19 -7 36 -5 86 4 86 7 0 7 3 0 8 -9 6 -11 22 -5 47 1
6 2 14 1 19 -7 36 -5 86 4 86 7 0 7 3 0 8 -9 6 -11 22 -5 47 1 6 1 15 0 20 -5
24 -3 92 3 103 4 6 3 13 -1 16 -5 3 -8 17 -7 31 2 14 -1 27 -6 31 -5 3 -9 1
-9 -5 0 -10 -18 -10 -37 2 -6 4 -14 3 -18 -3 -4 -6 -12 -7 -18 -3 -15 9 -47
11 -47 3 0 -9 -32 -6 -48 4 -7 4 -12 2 -12 -4 0 -6 -5 -8 -12 -4 -16 10 -48
13 -48 4 0 -8 -37 -6 -46 3 -4 4 -13 2 -20 -4 -8 -7 -14 -7 -19 1 -5 8 -10 8
-20 0 -9 -8 -15 -8 -20 0 -4 7 -12 7 -26 0 -14 -8 -19 -7 -19 1 0 9 -3 9 -14
0 -10 -9 -16 -9 -21 -1 -5 8 -10 8 -20 0 -10 -8 -15 -8 -20 0 -5 8 -10 8 -20
0 -9 -8 -15 -8 -20 0 -4 7 -12 7 -26 0 -10 -6 -19 -7 -19 -2 0 5 -7 9 -15 9
-8 0 -15 -3 -15 -7 0 -9 -32 -6 -48 4 -7 4 -12 2 -12 -4 0 -6 -5 -8 -12 -4
-17 11 -48 12 -48 3 0 -9 -20 -7 -37 4 -6 4 -14 3 -18 -3 -4 -6 -12 -7 -18 -3
-15 9 -47 11 -47 3 0 -9 -32 -6 -48 4 -7 4 -12 2 -12 -4 0 -6 -5 -8 -12 -4
-17 11 -48 12 -48 3 0 -9 -20 -7 -37 4 -6 4 -14 3 -18 -3 -4 -6 -12 -7 -18 -3
-15 9 -47 11 -47 3 0 -9 -32 -6 -48 4 -7 4 -12 2 -12 -4 0 -6 -5 -8 -12 -4
-17 11 -48 12 -48 3 0 -9 -20 -7 -37 4 -6 4 -14 3 -18 -3 -4 -6 -12 -7 -18 -3
-15 9 -47 11 -47 3 0 -9 -32 -6 -48 4 -7 4 -12 2 -12 -4 0 -6 -5 -8 -12 -4
-16 10 -48 13 -48 4 0 -9 -32 -6 -48 4 -6 4 -12 2 -13 -3z"/>
<path d="M51 1560 c-3 -3 -6 -18 -6 -33 1 -16 -3 -31 -7 -33 -5 -3 -5 -10 -2
-16 12 -18 12 -83 0 -90 -6 -4 -7 -8 -1 -8 11 0 13 -89 2 -106 -3 -6 -4 -14 0
-18 11 -11 10 -101 -1 -108 -7 -5 -7 -8 -1 -8 11 0 13 -89 2 -106 -3 -6 -4
-14 0 -18 11 -11 10 -101 -1 -108 -7 -5 -7 -8 -1 -8 11 0 13 -89 2 -106 -3 -6
-4 -14 0 -18 11 -11 10 -101 -1 -108 -7 -5 -7 -8 -1 -8 11 0 13 -89 2 -107 -4
-6 -3 -14 1 -17 5 -3 8 -17 7 -31 l-3 -25 758 0 c458 0 761 4 765 9 3 5 1 12
-5 16 -5 3 -10 11 -10 16 0 6 3 8 8 6 9 -6 8 90 -1 99 -4 4 -2 13 4 20 7 8 7
14 -1 19 -5 3 -10 11 -10 16 0 6 3 8 8 6 9 -6 8 90 -1 99 -3 4 -2 15 4 25 7
13 6 19 -1 19 -6 0 -8 5 -5 11 12 18 12 68 1 73 -7 3 -8 7 -1 13 12 10 13 33
2 51 -5 6 -4 12 1 12 5 0 9 7 9 15 0 8 -4 15 -9 15 -5 0 -4 10 3 21 8 16 8 20
-1 14 -9 -6 -9 -3 -1 12 7 14 7 23 -1 31 -8 8 -9 12 -1 12 13 0 12 32 -2 43
-7 5 -7 10 0 15 12 8 13 32 2 50 -5 6 -4 12 1 12 5 0 9 7 9 15 0 8 -4 15 -9
15 -5 0 -4 10 3 21 8 16 8 20 -1 14 -9 -6 -9 -3 -1 12 7 14 7 23 -1 31 -8 8
-9 12 -1 12 13 0 12 32 -2 43 -7 5 -7 10 0 15 13 9 14 92 2 92 -5 0 -4 7 3 15
10 12 10 15 0 15 -10 0 -10 3 -1 14 10 11 8 15 -6 18 -10 3 -28 1 -40 -4 -13
-4 -23 -4 -23 2 0 9 -32 6 -50 -5 -6 -3 -10 -2 -10 3 0 5 -7 9 -15 9 -8 0 -15
-5 -15 -10 0 -5 -6 -5 -13 2 -10 8 -17 7 -25 -1 -7 -7 -12 -8 -12 -2 0 6 -7
11 -15 11 -8 0 -15 -4 -15 -9 0 -5 -6 -6 -12 -1 -17 10 -68 11 -62 1 3 -4 0
-8 -5 -8 -6 0 -11 5 -11 10 0 7 -6 7 -19 1 -10 -6 -21 -8 -24 -5 -11 11 -57
11 -57 0 0 -7 -3 -7 -8 -1 -9 12 -44 16 -36 4 3 -5 0 -9 -5 -9 -6 0 -11 5 -11
10 0 7 -6 7 -19 1 -10 -6 -21 -8 -24 -4 -11 10 -52 9 -59 -2 -5 -7 -11 -7 -15
0 -11 14 -33 17 -33 4 0 -8 -4 -8 -13 0 -10 8 -17 7 -25 -1 -7 -7 -12 -8 -12
-2 0 6 -7 11 -15 11 -8 0 -15 -5 -15 -11 0 -6 -4 -6 -11 1 -8 8 -20 8 -35 3
-13 -5 -24 -6 -24 -2 0 4 -20 7 -44 7 -24 0 -42 -3 -39 -7 2 -5 -1 -8 -6 -8
-6 0 -11 5 -11 10 0 7 -6 7 -19 1 -10 -6 -21 -8 -24 -5 -8 8 -57 12 -57 5 0
-4 -9 -7 -20 -7 -11 0 -20 4 -20 8 0 7 -34 3 -50 -7 -6 -3 -10 -2 -10 3 0 5
-7 9 -15 9 -8 0 -15 -5 -15 -10 0 -5 -6 -5 -13 2 -10 8 -17 7 -25 -1 -7 -7
-12 -8 -12 -2 0 6 -7 11 -15 11 -8 0 -15 -4 -15 -9 0 -5 -6 -6 -12 -1 -17 10
-68 11 -62 1 3 -4 0 -8 -5 -8 -6 0 -11 5 -11 10 0 7 -6 7 -19 1 -10 -6 -21 -8
-24 -5 -11 11 -57 11 -57 0 0 -7 -3 -7 -8 -1 -9 12 -44 16 -36 4 3 -5 0 -9 -5
-9 -6 0 -11 3 -11 8 0 8 -48 10 -59 2z"/>
<path d="M1820 1557 c-19 -5 -29 -12 -23 -14 9 -3 10 -10 3 -24 -6 -10 -7 -19
-2 -19 9 0 8 -92 -2 -108 -3 -6 -2 -13 2 -16 8 -5 9 -29 2 -61 -1 -5 -1 -12 0
-15 7 -18 4 -60 -5 -60 -7 0 -7 -3 0 -8 13 -8 14 -102 1 -102 -5 0 -2 -8 5
-17 12 -14 12 -16 0 -8 -11 6 -12 5 -5 -6 12 -19 11 -82 -1 -91 -7 -5 -6 -11
1 -15 11 -9 11 -63 0 -81 -3 -6 -2 -13 2 -16 8 -5 9 -29 2 -61 -1 -5 -1 -12 0
-15 7 -18 4 -60 -5 -60 -7 0 -7 -3 0 -8 13 -8 14 -102 1 -102 -5 0 -2 -8 5
-17 12 -14 12 -16 0 -8 -11 6 -12 5 -5 -6 11 -18 12 -89 0 -89 -5 0 -3 -7 4
-15 6 -8 9 -19 5 -25 -4 -7 228 -10 754 -10 496 0 762 3 766 10 3 6 1 10 -6
10 -8 0 -9 3 0 13 6 8 8 17 4 21 -9 9 -11 46 -3 46 9 0 6 32 -4 48 -4 7 -2 12
4 12 6 0 8 5 4 12 -10 16 -13 48 -4 48 8 0 6 32 -3 47 -4 6 -3 15 3 18 8 5 7
11 -1 21 -9 11 -9 14 1 14 10 0 10 3 1 14 -9 10 -9 16 -1 21 8 5 8 10 0 20 -8
10 -8 15 0 20 8 5 8 10 0 20 -8 10 -8 15 0 20 7 5 8 11 1 19 -6 7 -6 17 -1 26
5 9 5 19 -1 26 -7 8 -6 14 1 19 6 3 7 12 3 18 -11 17 -13 37 -4 37 11 0 8 44
-4 52 -6 5 -5 8 3 8 8 0 10 5 6 12 -10 16 -13 48 -4 48 8 0 6 32 -3 47 -4 6
-3 15 3 18 8 5 7 11 -1 21 -9 11 -9 14 1 14 10 0 10 3 1 14 -9 10 -9 16 -1 21
8 5 8 10 0 20 -8 10 -8 15 0 20 8 5 8 10 0 20 -8 10 -8 15 0 20 8 5 9 10 1 18
-6 6 -7 16 -1 28 7 12 6 20 0 24 -8 5 -8 11 0 20 8 9 8 15 0 20 -7 4 -7 12 0
25 12 22 -6 39 -35 33 -39 -8 -60 -9 -70 -4 -16 9 -54 8 -49 -1 3 -4 0 -8 -5
-8 -6 0 -11 5 -11 10 0 7 -6 7 -19 1 -10 -6 -21 -8 -24 -5 -11 11 -57 11 -57
0 0 -7 -3 -7 -8 -1 -9 12 -44 16 -36 4 3 -5 0 -9 -5 -9 -6 0 -11 5 -11 10 0 7
-6 7 -19 1 -10 -6 -21 -8 -24 -4 -11 10 -52 9 -59 -2 -5 -7 -11 -7 -15 0 -11
14 -33 17 -33 4 0 -8 -4 -8 -13 0 -10 8 -17 7 -25 -1 -7 -7 -12 -8 -12 -2 0 6
-7 11 -15 11 -8 0 -15 -5 -15 -11 0 -6 -4 -6 -11 1 -8 8 -20 8 -35 3 -13 -5
-24 -6 -24 -2 0 4 -20 7 -44 7 -24 0 -42 -3 -39 -7 2 -5 -1 -8 -6 -8 -6 0 -11
5 -11 10 0 7 -6 7 -19 1 -10 -6 -21 -8 -24 -5 -8 8 -57 12 -57 5 0 -4 -9 -7
-20 -7 -11 0 -20 4 -20 8 0 7 -34 3 -50 -7 -6 -3 -10 -2 -10 3 0 5 -7 9 -15 9
-8 0 -15 -5 -15 -10 0 -5 -6 -5 -13 2 -10 8 -17 7 -25 -1 -7 -7 -12 -8 -12 -2
0 6 -7 11 -15 11 -8 0 -15 -4 -15 -9 0 -5 -6 -6 -12 -1 -17 10 -68 11 -62 1 3
-4 0 -8 -5 -8 -6 0 -11 5 -11 10 0 7 -6 7 -19 1 -10 -6 -21 -8 -24 -5 -11 11
-57 11 -57 0 0 -7 -3 -7 -8 -1 -9 12 -44 16 -36 4 3 -5 0 -9 -5 -9 -6 0 -11 5
-11 10 0 7 -6 7 -19 1 -10 -6 -21 -8 -24 -4 -11 10 -52 9 -59 -2 -5 -7 -11 -7
-15 0 -11 14 -33 17 -33 4 0 -8 -4 -8 -12 -2 -9 7 -25 7 -48 0z"/>
<path d="M3564 1558 c2 -7 -1 -21 -6 -30 -6 -12 -5 -18 2 -18 7 0 8 -6 1 -19
-6 -10 -7 -21 -4 -25 9 -9 11 -46 3 -46 -9 0 -6 -32 4 -48 4 -7 2 -12 -4 -12
-6 0 -8 -5 -4 -12 10 -16 13 -48 4 -48 -8 0 -6 -37 3 -46 4 -4 2 -13 -4 -21
-6 -7 -7 -13 -2 -13 5 0 9 -9 9 -20 0 -11 -3 -20 -6 -20 -9 0 -6 -32 4 -48 4
-7 2 -12 -4 -12 -6 0 -8 -5 -4 -12 10 -16 13 -48 4 -48 -8 0 -6 -37 3 -46 4
-4 2 -13 -4 -21 -6 -7 -7 -13 -2 -13 5 0 9 -9 9 -20 0 -11 -3 -20 -6 -20 -9 0
-6 -32 4 -48 4 -7 2 -12 -4 -12 -6 0 -8 -5 -4 -12 10 -15 13 -48 5 -48 -8 0
-6 -58 2 -66 3 -4 2 -15 -4 -25 -7 -13 -6 -19 1 -19 7 0 8 -6 0 -19 -7 -14 -7
-22 0 -26 8 -5 7 -11 -1 -21 -9 -11 -9 -14 0 -14 8 0 9 -5 1 -19 -6 -13 -7
-22 0 -26 6 -3 6 -15 0 -30 -6 -16 -5 -25 3 -29 9 -5 9 -7 -1 -12 -10 -5 -10
-9 -1 -20 10 -12 128 -14 771 -14 597 0 757 3 751 13 -11 18 -10 91 2 100 7 4
6 10 0 15 -13 8 -14 102 -2 102 5 0 5 6 0 13 -11 17 -10 41 2 49 6 5 5 8 -3 8
-10 0 -10 5 -2 20 8 15 8 20 -1 20 -8 0 -9 4 0 13 6 8 8 17 4 21 -10 10 -10
96 0 96 4 0 5 6 0 13 -11 17 -10 41 2 49 6 5 5 8 -3 8 -10 0 -10 5 -2 20 8 15
8 20 -1 20 -8 0 -9 4 0 13 6 8 8 17 4 21 -10 10 -10 96 0 96 4 0 5 6 0 13 -11
17 -10 41 2 49 6 5 5 8 -3 8 -10 0 -10 5 -2 20 8 15 8 20 -1 20 -8 0 -9 4 0
13 6 8 8 17 4 21 -10 10 -10 96 0 96 4 0 5 6 0 13 -11 17 -10 41 2 49 6 5 5 8
-4 8 -11 0 -11 3 -1 15 9 10 9 15 1 15 -6 0 -11 9 -11 20 0 17 -3 19 -19 11
-10 -6 -21 -8 -24 -5 -11 11 -57 11 -57 0 0 -7 -3 -7 -8 -1 -9 12 -44 16 -36
4 3 -5 0 -9 -5 -9 -6 0 -11 5 -11 10 0 7 -6 7 -19 1 -10 -6 -21 -8 -24 -4 -11
10 -52 9 -59 -2 -5 -7 -11 -7 -15 0 -11 14 -33 17 -33 4 0 -8 -4 -8 -13 0 -10
8 -17 7 -25 -1 -7 -7 -12 -8 -12 -2 0 6 -7 11 -15 11 -8 0 -15 -5 -15 -11 0
-6 -4 -6 -11 1 -8 8 -20 8 -35 3 -13 -5 -24 -6 -24 -2 0 4 -20 7 -44 7 -24 0
-42 -3 -39 -7 2 -5 -1 -8 -6 -8 -6 0 -11 5 -11 10 0 7 -6 7 -19 1 -10 -6 -21
-8 -24 -5 -8 8 -57 12 -57 5 0 -4 -9 -7 -20 -7 -11 0 -20 4 -20 8 0 7 -34 3
-50 -7 -6 -3 -10 -2 -10 3 0 5 -7 9 -15 9 -8 0 -15 -5 -15 -10 0 -5 -6 -5 -13
2 -10 8 -17 7 -25 -1 -7 -7 -12 -8 -12 -2 0 6 -7 11 -15 11 -8 0 -15 -4 -15
-9 0 -5 -6 -6 -12 -1 -17 10 -68 11 -62 1 3 -4 0 -8 -5 -8 -6 0 -11 5 -11 10
0 7 -6 7 -19 1 -10 -6 -21 -8 -24 -5 -11 11 -57 11 -57 0 0 -7 -3 -7 -8 -1 -9
12 -44 16 -36 4 3 -5 0 -9 -5 -9 -6 0 -11 5 -11 10 0 7 -6 7 -19 1 -10 -6 -21
-8 -24 -4 -11 10 -52 9 -59 -2 -5 -7 -11 -7 -15 0 -11 14 -33 17 -33 4 0 -8
-4 -8 -13 0 -10 8 -17 7 -25 -1 -7 -7 -12 -8 -12 -2 0 6 -7 11 -15 11 -8 0
-15 -5 -15 -11 0 -6 -4 -6 -11 1 -8 8 -20 8 -35 3 -13 -5 -24 -6 -24 -2 0 10
-51 9 -67 -1 -6 -4 -14 -2 -16 3 -3 6 -4 5 -3 -2z"/>
<path d="M5327 1560 c-13 -6 -17 -70 -4 -70 4 0 5 -5 2 -11 -10 -14 -14 -59
-6 -59 4 0 7 -9 7 -20 0 -11 -3 -20 -6 -20 -7 0 -5 -48 2 -56 4 -3 2 -19 -2
-35 -5 -17 -5 -31 1 -35 6 -4 6 -11 -2 -20 -9 -11 -9 -14 0 -14 8 0 9 -5 1
-19 -7 -14 -7 -22 0 -26 8 -5 7 -11 -1 -21 -8 -10 -8 -14 0 -14 7 0 8 -8 1
-25 -6 -17 -6 -25 1 -25 6 0 7 -5 4 -11 -10 -14 -14 -59 -6 -59 4 0 7 -9 7
-20 0 -11 -4 -20 -8 -20 -5 0 -4 -8 1 -18 6 -11 6 -24 0 -35 -7 -12 -6 -17 1
-17 6 0 8 -5 3 -12 -10 -17 -13 -38 -4 -38 4 0 7 -9 7 -20 0 -11 -3 -20 -6
-20 -9 0 -6 -38 3 -46 4 -4 2 -13 -4 -21 -9 -9 -8 -13 0 -13 8 0 9 -5 1 -19
-7 -14 -7 -22 0 -26 8 -5 7 -11 -1 -21 -9 -11 -9 -14 0 -14 8 0 9 -5 2 -19 -6
-10 -8 -21 -5 -24 8 -7 11 -77 4 -77 -3 0 -5 -11 -5 -25 0 -18 7 -27 20 -31
11 -2 353 -3 760 -2 l740 3 0 25 c0 14 5 28 10 32 7 5 7 8 0 8 -6 0 -11 13
-11 30 -1 20 2 27 10 23 8 -5 8 -3 0 8 -6 8 -9 23 -7 34 5 24 5 29 -1 83 -3
30 -1 40 7 35 8 -5 8 -2 0 8 -10 12 -10 18 -1 27 8 8 8 12 2 12 -12 0 -12 78
-1 96 3 6 3 14 0 18 -12 12 -12 36 0 36 8 0 8 3 2 8 -14 10 -15 75 -1 84 7 5
6 8 -3 8 -11 0 -11 3 -1 15 7 8 9 15 4 15 -5 0 -10 18 -10 40 -1 26 3 37 10
33 6 -4 6 0 -1 8 -10 12 -10 18 -1 27 7 7 8 12 2 12 -13 0 -12 63 1 72 6 5 6
8 -1 8 -12 0 -13 78 -1 96 3 6 3 14 0 18 -12 12 -12 40 0 48 9 6 8 8 -2 8 -11
0 -11 3 -1 15 8 9 8 15 2 15 -6 0 -9 15 -6 36 3 22 1 33 -6 29 -5 -3 -10 -2
-10 2 0 5 -13 9 -29 8 -16 0 -27 -3 -24 -7 2 -5 -1 -8 -6 -8 -6 0 -11 5 -11
10 0 7 -6 7 -19 1 -10 -6 -21 -8 -24 -5 -8 8 -57 12 -57 5 0 -4 -9 -7 -20 -7
-11 0 -20 4 -20 8 0 7 -34 3 -50 -7 -6 -3 -10 -2 -10 3 0 5 -7 9 -15 9 -8 0
-15 -5 -15 -10 0 -5 -6 -5 -13 2 -10 8 -17 7 -25 -1 -7 -7 -12 -8 -12 -2 0 6
-7 11 -15 11 -8 0 -15 -4 -15 -9 0 -5 -6 -6 -12 -1 -17 10 -68 11 -62 1 3 -4
0 -8 -5 -8 -6 0 -11 5 -11 10 0 7 -6 7 -19 1 -10 -6 -21 -8 -24 -5 -11 11 -57
11 -57 0 0 -7 -3 -7 -8 -1 -9 12 -44 16 -36 4 3 -5 0 -9 -5 -9 -6 0 -11 5 -11
10 0 7 -6 7 -19 1 -10 -6 -21 -8 -24 -4 -11 10 -52 9 -59 -2 -5 -7 -11 -7 -15
0 -11 14 -33 17 -33 4 0 -8 -4 -8 -13 0 -10 8 -17 7 -25 -1 -7 -7 -12 -8 -12
-2 0 6 -7 11 -15 11 -8 0 -15 -5 -15 -11 0 -6 -4 -6 -11 1 -8 8 -20 8 -35 3
-13 -5 -24 -6 -24 -2 0 4 -20 7 -44 7 -24 0 -42 -3 -39 -7 2 -5 -1 -8 -6 -8
-6 0 -11 5 -11 10 0 7 -6 7 -19 1 -10 -6 -21 -8 -24 -5 -8 8 -57 12 -57 5 0
-4 -9 -7 -20 -7 -11 0 -20 4 -20 8 0 7 -34 3 -50 -7 -6 -3 -10 -2 -10 3 0 5
-7 9 -15 9 -8 0 -15 -5 -15 -10 0 -5 -6 -5 -13 2 -10 8 -17 7 -25 -1 -7 -7
-12 -8 -12 -2 0 6 -7 11 -15 11 -8 0 -15 -4 -15 -9 0 -5 -6 -6 -12 -1 -17 10
-68 11 -62 1 3 -4 0 -8 -5 -8 -6 0 -11 3 -11 8 0 8 -44 10 -63 2z"/>
</g>
</svg>
